<?xml version="1.0" encoding="utf-8" standalone="no"?>
<!DOCTYPE svg PUBLIC "-//W3C//DTD SVG 1.1//EN"
  "http://www.w3.org/Graphics/SVG/1.1/DTD/svg11.dtd">
<svg xmlns:xlink="http://www.w3.org/1999/xlink" width="864pt" height="576pt" viewBox="0 0 864 576" xmlns="http://www.w3.org/2000/svg" version="1.1">
 <metadata>
  <rdf:RDF xmlns:dc="http://purl.org/dc/elements/1.1/" xmlns:cc="http://creativecommons.org/ns#" xmlns:rdf="http://www.w3.org/1999/02/22-rdf-syntax-ns#">
   <cc:Work>
    <dc:type rdf:resource="http://purl.org/dc/dcmitype/StillImage"/>
    <dc:date>2024-03-06T10:52:02.471776</dc:date>
    <dc:format>image/svg+xml</dc:format>
    <dc:creator>
     <cc:Agent>
      <dc:title>Matplotlib v3.8.3, https://matplotlib.org/</dc:title>
     </cc:Agent>
    </dc:creator>
   </cc:Work>
  </rdf:RDF>
 </metadata>
 <defs>
  <style type="text/css">*{stroke-linejoin: round; stroke-linecap: butt}</style>
 </defs>
 <g id="figure_1">
  <g id="patch_1">
   <path d="M 0 576 
L 864 576 
L 864 0 
L 0 0 
z
" style="fill: #ffffff"/>
  </g>
  <g id="axes_1">
   <g id="patch_2">
    <path d="M 33.64 134.405 
L 853.2 134.405 
L 853.2 10.8 
L 33.64 10.8 
z
" style="fill: #ffffff"/>
   </g>
   <g id="PolyCollection_1">
    <defs>
     <path id="m98b11497fc" d="M 70.892727 -498.970516 
L 70.892727 -452.688614 
L 101.936667 -461.429067 
L 132.980606 -480.599451 
L 164.024545 -500.058805 
L 195.068485 -503.370618 
L 226.112424 -507.549138 
L 257.156364 -499.7672 
L 288.200303 -493.300385 
L 319.244242 -500.150887 
L 350.288182 -488.49351 
L 381.332121 -476.174045 
L 412.376061 -490.818922 
L 443.42 -495.555271 
L 474.463939 -480.298868 
L 505.507879 -465.75042 
L 536.551818 -475.237682 
L 567.595758 -490.577836 
L 598.639697 -490.872975 
L 629.683636 -486.016358 
L 660.727576 -482.114068 
L 691.771515 -462.833729 
L 722.815455 -460.927575 
L 753.859394 -455.582097 
L 784.903333 -455.154974 
L 815.947273 -450.11851 
L 815.947273 -497.606119 
L 815.947273 -497.606119 
L 784.903333 -496.011326 
L 753.859394 -497.040247 
L 722.815455 -499.079356 
L 691.771515 -506.551334 
L 660.727576 -536.632436 
L 629.683636 -546.463661 
L 598.639697 -548.12574 
L 567.595758 -532.133284 
L 536.551818 -523.97285 
L 505.507879 -518.357946 
L 474.463939 -531.812321 
L 443.42 -537.948474 
L 412.376061 -534.007357 
L 381.332121 -527.017296 
L 350.288182 -540.725246 
L 319.244242 -551.660307 
L 288.200303 -537.360814 
L 257.156364 -535.003608 
L 226.112424 -547.091653 
L 195.068485 -550.326121 
L 164.024545 -544.913125 
L 132.980606 -530.132897 
L 101.936667 -510.27871 
L 70.892727 -498.970516 
z
" style="stroke: #008000; stroke-opacity: 0.2"/>
    </defs>
    <g clip-path="url(#p45c0ab4a39)">
     <use xlink:href="#m98b11497fc" x="0" y="576" style="fill: #008000; fill-opacity: 0.2; stroke: #008000; stroke-opacity: 0.2"/>
    </g>
   </g>
   <g id="matplotlib.axis_1">
    <g id="xtick_1">
     <g id="line2d_1">
      <defs>
       <path id="mcf9a8203fc" d="M 0 0 
L 0 3.5 
" style="stroke: #000000; stroke-width: 0.8"/>
      </defs>
      <g>
       <use xlink:href="#mcf9a8203fc" x="70.892727" y="134.405" style="stroke: #000000; stroke-width: 0.8"/>
      </g>
     </g>
    </g>
    <g id="xtick_2">
     <g id="line2d_2">
      <g>
       <use xlink:href="#mcf9a8203fc" x="195.068485" y="134.405" style="stroke: #000000; stroke-width: 0.8"/>
      </g>
     </g>
    </g>
    <g id="xtick_3">
     <g id="line2d_3">
      <g>
       <use xlink:href="#mcf9a8203fc" x="319.244242" y="134.405" style="stroke: #000000; stroke-width: 0.8"/>
      </g>
     </g>
    </g>
    <g id="xtick_4">
     <g id="line2d_4">
      <g>
       <use xlink:href="#mcf9a8203fc" x="443.42" y="134.405" style="stroke: #000000; stroke-width: 0.8"/>
      </g>
     </g>
    </g>
    <g id="xtick_5">
     <g id="line2d_5">
      <g>
       <use xlink:href="#mcf9a8203fc" x="567.595758" y="134.405" style="stroke: #000000; stroke-width: 0.8"/>
      </g>
     </g>
    </g>
    <g id="xtick_6">
     <g id="line2d_6">
      <g>
       <use xlink:href="#mcf9a8203fc" x="691.771515" y="134.405" style="stroke: #000000; stroke-width: 0.8"/>
      </g>
     </g>
    </g>
    <g id="xtick_7">
     <g id="line2d_7">
      <g>
       <use xlink:href="#mcf9a8203fc" x="815.947273" y="134.405" style="stroke: #000000; stroke-width: 0.8"/>
      </g>
     </g>
    </g>
   </g>
   <g id="matplotlib.axis_2">
    <g id="ytick_1">
     <g id="line2d_8">
      <defs>
       <path id="ma24123d782" d="M 0 0 
L -3.5 0 
" style="stroke: #000000; stroke-width: 0.8"/>
      </defs>
      <g>
       <use xlink:href="#ma24123d782" x="33.64" y="124.833792" style="stroke: #000000; stroke-width: 0.8"/>
      </g>
     </g>
     <g id="text_1">
      <!-- 0.0 -->
      <g transform="translate(10.736875 128.633011) scale(0.1 -0.1)">
       <defs>
        <path id="DejaVuSans-30" d="M 2034 4250 
Q 1547 4250 1301 3770 
Q 1056 3291 1056 2328 
Q 1056 1369 1301 889 
Q 1547 409 2034 409 
Q 2525 409 2770 889 
Q 3016 1369 3016 2328 
Q 3016 3291 2770 3770 
Q 2525 4250 2034 4250 
z
M 2034 4750 
Q 2819 4750 3233 4129 
Q 3647 3509 3647 2328 
Q 3647 1150 3233 529 
Q 2819 -91 2034 -91 
Q 1250 -91 836 529 
Q 422 1150 422 2328 
Q 422 3509 836 4129 
Q 1250 4750 2034 4750 
z
" transform="scale(0.015625)"/>
        <path id="DejaVuSans-2e" d="M 684 794 
L 1344 794 
L 1344 0 
L 684 0 
L 684 794 
z
" transform="scale(0.015625)"/>
       </defs>
       <use xlink:href="#DejaVuSans-30"/>
       <use xlink:href="#DejaVuSans-2e" x="63.623047"/>
       <use xlink:href="#DejaVuSans-30" x="95.410156"/>
      </g>
     </g>
    </g>
    <g id="ytick_2">
     <g id="line2d_9">
      <g>
       <use xlink:href="#ma24123d782" x="33.64" y="103.717182" style="stroke: #000000; stroke-width: 0.8"/>
      </g>
     </g>
     <g id="text_2">
      <!-- 0.2 -->
      <g transform="translate(10.736875 107.516401) scale(0.1 -0.1)">
       <defs>
        <path id="DejaVuSans-32" d="M 1228 531 
L 3431 531 
L 3431 0 
L 469 0 
L 469 531 
Q 828 903 1448 1529 
Q 2069 2156 2228 2338 
Q 2531 2678 2651 2914 
Q 2772 3150 2772 3378 
Q 2772 3750 2511 3984 
Q 2250 4219 1831 4219 
Q 1534 4219 1204 4116 
Q 875 4013 500 3803 
L 500 4441 
Q 881 4594 1212 4672 
Q 1544 4750 1819 4750 
Q 2544 4750 2975 4387 
Q 3406 4025 3406 3419 
Q 3406 3131 3298 2873 
Q 3191 2616 2906 2266 
Q 2828 2175 2409 1742 
Q 1991 1309 1228 531 
z
" transform="scale(0.015625)"/>
       </defs>
       <use xlink:href="#DejaVuSans-30"/>
       <use xlink:href="#DejaVuSans-2e" x="63.623047"/>
       <use xlink:href="#DejaVuSans-32" x="95.410156"/>
      </g>
     </g>
    </g>
    <g id="ytick_3">
     <g id="line2d_10">
      <g>
       <use xlink:href="#ma24123d782" x="33.64" y="82.600572" style="stroke: #000000; stroke-width: 0.8"/>
      </g>
     </g>
     <g id="text_3">
      <!-- 0.4 -->
      <g transform="translate(10.736875 86.399791) scale(0.1 -0.1)">
       <defs>
        <path id="DejaVuSans-34" d="M 2419 4116 
L 825 1625 
L 2419 1625 
L 2419 4116 
z
M 2253 4666 
L 3047 4666 
L 3047 1625 
L 3713 1625 
L 3713 1100 
L 3047 1100 
L 3047 0 
L 2419 0 
L 2419 1100 
L 313 1100 
L 313 1709 
L 2253 4666 
z
" transform="scale(0.015625)"/>
       </defs>
       <use xlink:href="#DejaVuSans-30"/>
       <use xlink:href="#DejaVuSans-2e" x="63.623047"/>
       <use xlink:href="#DejaVuSans-34" x="95.410156"/>
      </g>
     </g>
    </g>
    <g id="ytick_4">
     <g id="line2d_11">
      <g>
       <use xlink:href="#ma24123d782" x="33.64" y="61.483962" style="stroke: #000000; stroke-width: 0.8"/>
      </g>
     </g>
     <g id="text_4">
      <!-- 0.6 -->
      <g transform="translate(10.736875 65.283181) scale(0.1 -0.1)">
       <defs>
        <path id="DejaVuSans-36" d="M 2113 2584 
Q 1688 2584 1439 2293 
Q 1191 2003 1191 1497 
Q 1191 994 1439 701 
Q 1688 409 2113 409 
Q 2538 409 2786 701 
Q 3034 994 3034 1497 
Q 3034 2003 2786 2293 
Q 2538 2584 2113 2584 
z
M 3366 4563 
L 3366 3988 
Q 3128 4100 2886 4159 
Q 2644 4219 2406 4219 
Q 1781 4219 1451 3797 
Q 1122 3375 1075 2522 
Q 1259 2794 1537 2939 
Q 1816 3084 2150 3084 
Q 2853 3084 3261 2657 
Q 3669 2231 3669 1497 
Q 3669 778 3244 343 
Q 2819 -91 2113 -91 
Q 1303 -91 875 529 
Q 447 1150 447 2328 
Q 447 3434 972 4092 
Q 1497 4750 2381 4750 
Q 2619 4750 2861 4703 
Q 3103 4656 3366 4563 
z
" transform="scale(0.015625)"/>
       </defs>
       <use xlink:href="#DejaVuSans-30"/>
       <use xlink:href="#DejaVuSans-2e" x="63.623047"/>
       <use xlink:href="#DejaVuSans-36" x="95.410156"/>
      </g>
     </g>
    </g>
    <g id="ytick_5">
     <g id="line2d_12">
      <g>
       <use xlink:href="#ma24123d782" x="33.64" y="40.367352" style="stroke: #000000; stroke-width: 0.8"/>
      </g>
     </g>
     <g id="text_5">
      <!-- 0.8 -->
      <g transform="translate(10.736875 44.166571) scale(0.1 -0.1)">
       <defs>
        <path id="DejaVuSans-38" d="M 2034 2216 
Q 1584 2216 1326 1975 
Q 1069 1734 1069 1313 
Q 1069 891 1326 650 
Q 1584 409 2034 409 
Q 2484 409 2743 651 
Q 3003 894 3003 1313 
Q 3003 1734 2745 1975 
Q 2488 2216 2034 2216 
z
M 1403 2484 
Q 997 2584 770 2862 
Q 544 3141 544 3541 
Q 544 4100 942 4425 
Q 1341 4750 2034 4750 
Q 2731 4750 3128 4425 
Q 3525 4100 3525 3541 
Q 3525 3141 3298 2862 
Q 3072 2584 2669 2484 
Q 3125 2378 3379 2068 
Q 3634 1759 3634 1313 
Q 3634 634 3220 271 
Q 2806 -91 2034 -91 
Q 1263 -91 848 271 
Q 434 634 434 1313 
Q 434 1759 690 2068 
Q 947 2378 1403 2484 
z
M 1172 3481 
Q 1172 3119 1398 2916 
Q 1625 2713 2034 2713 
Q 2441 2713 2670 2916 
Q 2900 3119 2900 3481 
Q 2900 3844 2670 4047 
Q 2441 4250 2034 4250 
Q 1625 4250 1398 4047 
Q 1172 3844 1172 3481 
z
" transform="scale(0.015625)"/>
       </defs>
       <use xlink:href="#DejaVuSans-30"/>
       <use xlink:href="#DejaVuSans-2e" x="63.623047"/>
       <use xlink:href="#DejaVuSans-38" x="95.410156"/>
      </g>
     </g>
    </g>
    <g id="ytick_6">
     <g id="line2d_13">
      <g>
       <use xlink:href="#ma24123d782" x="33.64" y="19.250742" style="stroke: #000000; stroke-width: 0.8"/>
      </g>
     </g>
     <g id="text_6">
      <!-- 1.0 -->
      <g transform="translate(10.736875 23.04996) scale(0.1 -0.1)">
       <defs>
        <path id="DejaVuSans-31" d="M 794 531 
L 1825 531 
L 1825 4091 
L 703 3866 
L 703 4441 
L 1819 4666 
L 2450 4666 
L 2450 531 
L 3481 531 
L 3481 0 
L 794 0 
L 794 531 
z
" transform="scale(0.015625)"/>
       </defs>
       <use xlink:href="#DejaVuSans-31"/>
       <use xlink:href="#DejaVuSans-2e" x="63.623047"/>
       <use xlink:href="#DejaVuSans-30" x="95.410156"/>
      </g>
     </g>
    </g>
   </g>
   <g id="line2d_14">
    <path d="M 70.892727 100.170435 
L 101.936667 90.146112 
L 132.980606 70.633826 
L 164.024545 53.514035 
L 195.068485 49.151631 
L 226.112424 48.679604 
L 257.156364 58.614596 
L 288.200303 60.6694 
L 319.244242 50.094403 
L 350.288182 61.390622 
L 381.332121 74.40433 
L 412.376061 63.58686 
L 443.42 59.248127 
L 474.463939 69.944406 
L 505.507879 83.945817 
L 536.551818 76.394734 
L 567.595758 64.64444 
L 598.639697 56.500642 
L 629.683636 59.75999 
L 660.727576 66.626748 
L 691.771515 91.307469 
L 722.815455 95.996534 
L 753.859394 99.688828 
L 784.903333 100.41685 
L 815.947273 102.137685 
" clip-path="url(#p45c0ab4a39)" style="fill: none; stroke: #008000; stroke-width: 1.5; stroke-linecap: square"/>
    <defs>
     <path id="m18470b2013" d="M 0 3 
C 0.795609 3 1.55874 2.683901 2.12132 2.12132 
C 2.683901 1.55874 3 0.795609 3 0 
C 3 -0.795609 2.683901 -1.55874 2.12132 -2.12132 
C 1.55874 -2.683901 0.795609 -3 0 -3 
C -0.795609 -3 -1.55874 -2.683901 -2.12132 -2.12132 
C -2.683901 -1.55874 -3 -0.795609 -3 0 
C -3 0.795609 -2.683901 1.55874 -2.12132 2.12132 
C -1.55874 2.683901 -0.795609 3 0 3 
z
" style="stroke: #008000"/>
    </defs>
    <g clip-path="url(#p45c0ab4a39)">
     <use xlink:href="#m18470b2013" x="70.892727" y="100.170435" style="fill: #008000; stroke: #008000"/>
     <use xlink:href="#m18470b2013" x="101.936667" y="90.146112" style="fill: #008000; stroke: #008000"/>
     <use xlink:href="#m18470b2013" x="132.980606" y="70.633826" style="fill: #008000; stroke: #008000"/>
     <use xlink:href="#m18470b2013" x="164.024545" y="53.514035" style="fill: #008000; stroke: #008000"/>
     <use xlink:href="#m18470b2013" x="195.068485" y="49.151631" style="fill: #008000; stroke: #008000"/>
     <use xlink:href="#m18470b2013" x="226.112424" y="48.679604" style="fill: #008000; stroke: #008000"/>
     <use xlink:href="#m18470b2013" x="257.156364" y="58.614596" style="fill: #008000; stroke: #008000"/>
     <use xlink:href="#m18470b2013" x="288.200303" y="60.6694" style="fill: #008000; stroke: #008000"/>
     <use xlink:href="#m18470b2013" x="319.244242" y="50.094403" style="fill: #008000; stroke: #008000"/>
     <use xlink:href="#m18470b2013" x="350.288182" y="61.390622" style="fill: #008000; stroke: #008000"/>
     <use xlink:href="#m18470b2013" x="381.332121" y="74.40433" style="fill: #008000; stroke: #008000"/>
     <use xlink:href="#m18470b2013" x="412.376061" y="63.58686" style="fill: #008000; stroke: #008000"/>
     <use xlink:href="#m18470b2013" x="443.42" y="59.248127" style="fill: #008000; stroke: #008000"/>
     <use xlink:href="#m18470b2013" x="474.463939" y="69.944406" style="fill: #008000; stroke: #008000"/>
     <use xlink:href="#m18470b2013" x="505.507879" y="83.945817" style="fill: #008000; stroke: #008000"/>
     <use xlink:href="#m18470b2013" x="536.551818" y="76.394734" style="fill: #008000; stroke: #008000"/>
     <use xlink:href="#m18470b2013" x="567.595758" y="64.64444" style="fill: #008000; stroke: #008000"/>
     <use xlink:href="#m18470b2013" x="598.639697" y="56.500642" style="fill: #008000; stroke: #008000"/>
     <use xlink:href="#m18470b2013" x="629.683636" y="59.75999" style="fill: #008000; stroke: #008000"/>
     <use xlink:href="#m18470b2013" x="660.727576" y="66.626748" style="fill: #008000; stroke: #008000"/>
     <use xlink:href="#m18470b2013" x="691.771515" y="91.307469" style="fill: #008000; stroke: #008000"/>
     <use xlink:href="#m18470b2013" x="722.815455" y="95.996534" style="fill: #008000; stroke: #008000"/>
     <use xlink:href="#m18470b2013" x="753.859394" y="99.688828" style="fill: #008000; stroke: #008000"/>
     <use xlink:href="#m18470b2013" x="784.903333" y="100.41685" style="fill: #008000; stroke: #008000"/>
     <use xlink:href="#m18470b2013" x="815.947273" y="102.137685" style="fill: #008000; stroke: #008000"/>
    </g>
   </g>
   <g id="patch_3">
    <path d="M 33.64 134.405 
L 33.64 10.8 
" style="fill: none; stroke: #000000; stroke-width: 0.8; stroke-linejoin: miter; stroke-linecap: square"/>
   </g>
   <g id="patch_4">
    <path d="M 853.2 134.405 
L 853.2 10.8 
" style="fill: none; stroke: #000000; stroke-width: 0.8; stroke-linejoin: miter; stroke-linecap: square"/>
   </g>
   <g id="patch_5">
    <path d="M 33.64 134.405 
L 853.2 134.405 
" style="fill: none; stroke: #000000; stroke-width: 0.8; stroke-linejoin: miter; stroke-linecap: square"/>
   </g>
   <g id="patch_6">
    <path d="M 33.64 10.8 
L 853.2 10.8 
" style="fill: none; stroke: #000000; stroke-width: 0.8; stroke-linejoin: miter; stroke-linecap: square"/>
   </g>
   <g id="legend_1">
    <g id="patch_7">
     <path d="M 745.23125 33.478125 
L 846.2 33.478125 
Q 848.2 33.478125 848.2 31.478125 
L 848.2 17.8 
Q 848.2 15.8 846.2 15.8 
L 745.23125 15.8 
Q 743.23125 15.8 743.23125 17.8 
L 743.23125 31.478125 
Q 743.23125 33.478125 745.23125 33.478125 
z
" style="fill: #ffffff; opacity: 0.8; stroke: #cccccc; stroke-linejoin: miter"/>
    </g>
    <g id="line2d_15">
     <path d="M 747.23125 23.898438 
L 757.23125 23.898438 
L 767.23125 23.898438 
" style="fill: none; stroke: #008000; stroke-width: 1.5; stroke-linecap: square"/>
     <g>
      <use xlink:href="#m18470b2013" x="757.23125" y="23.898438" style="fill: #008000; stroke: #008000"/>
     </g>
    </g>
    <g id="text_7">
     <!-- Normal tissue -->
     <g transform="translate(775.23125 27.398438) scale(0.1 -0.1)">
      <defs>
       <path id="DejaVuSans-4e" d="M 628 4666 
L 1478 4666 
L 3547 763 
L 3547 4666 
L 4159 4666 
L 4159 0 
L 3309 0 
L 1241 3903 
L 1241 0 
L 628 0 
L 628 4666 
z
" transform="scale(0.015625)"/>
       <path id="DejaVuSans-6f" d="M 1959 3097 
Q 1497 3097 1228 2736 
Q 959 2375 959 1747 
Q 959 1119 1226 758 
Q 1494 397 1959 397 
Q 2419 397 2687 759 
Q 2956 1122 2956 1747 
Q 2956 2369 2687 2733 
Q 2419 3097 1959 3097 
z
M 1959 3584 
Q 2709 3584 3137 3096 
Q 3566 2609 3566 1747 
Q 3566 888 3137 398 
Q 2709 -91 1959 -91 
Q 1206 -91 779 398 
Q 353 888 353 1747 
Q 353 2609 779 3096 
Q 1206 3584 1959 3584 
z
" transform="scale(0.015625)"/>
       <path id="DejaVuSans-72" d="M 2631 2963 
Q 2534 3019 2420 3045 
Q 2306 3072 2169 3072 
Q 1681 3072 1420 2755 
Q 1159 2438 1159 1844 
L 1159 0 
L 581 0 
L 581 3500 
L 1159 3500 
L 1159 2956 
Q 1341 3275 1631 3429 
Q 1922 3584 2338 3584 
Q 2397 3584 2469 3576 
Q 2541 3569 2628 3553 
L 2631 2963 
z
" transform="scale(0.015625)"/>
       <path id="DejaVuSans-6d" d="M 3328 2828 
Q 3544 3216 3844 3400 
Q 4144 3584 4550 3584 
Q 5097 3584 5394 3201 
Q 5691 2819 5691 2113 
L 5691 0 
L 5113 0 
L 5113 2094 
Q 5113 2597 4934 2840 
Q 4756 3084 4391 3084 
Q 3944 3084 3684 2787 
Q 3425 2491 3425 1978 
L 3425 0 
L 2847 0 
L 2847 2094 
Q 2847 2600 2669 2842 
Q 2491 3084 2119 3084 
Q 1678 3084 1418 2786 
Q 1159 2488 1159 1978 
L 1159 0 
L 581 0 
L 581 3500 
L 1159 3500 
L 1159 2956 
Q 1356 3278 1631 3431 
Q 1906 3584 2284 3584 
Q 2666 3584 2933 3390 
Q 3200 3197 3328 2828 
z
" transform="scale(0.015625)"/>
       <path id="DejaVuSans-61" d="M 2194 1759 
Q 1497 1759 1228 1600 
Q 959 1441 959 1056 
Q 959 750 1161 570 
Q 1363 391 1709 391 
Q 2188 391 2477 730 
Q 2766 1069 2766 1631 
L 2766 1759 
L 2194 1759 
z
M 3341 1997 
L 3341 0 
L 2766 0 
L 2766 531 
Q 2569 213 2275 61 
Q 1981 -91 1556 -91 
Q 1019 -91 701 211 
Q 384 513 384 1019 
Q 384 1609 779 1909 
Q 1175 2209 1959 2209 
L 2766 2209 
L 2766 2266 
Q 2766 2663 2505 2880 
Q 2244 3097 1772 3097 
Q 1472 3097 1187 3025 
Q 903 2953 641 2809 
L 641 3341 
Q 956 3463 1253 3523 
Q 1550 3584 1831 3584 
Q 2591 3584 2966 3190 
Q 3341 2797 3341 1997 
z
" transform="scale(0.015625)"/>
       <path id="DejaVuSans-6c" d="M 603 4863 
L 1178 4863 
L 1178 0 
L 603 0 
L 603 4863 
z
" transform="scale(0.015625)"/>
       <path id="DejaVuSans-20" transform="scale(0.015625)"/>
       <path id="DejaVuSans-74" d="M 1172 4494 
L 1172 3500 
L 2356 3500 
L 2356 3053 
L 1172 3053 
L 1172 1153 
Q 1172 725 1289 603 
Q 1406 481 1766 481 
L 2356 481 
L 2356 0 
L 1766 0 
Q 1100 0 847 248 
Q 594 497 594 1153 
L 594 3053 
L 172 3053 
L 172 3500 
L 594 3500 
L 594 4494 
L 1172 4494 
z
" transform="scale(0.015625)"/>
       <path id="DejaVuSans-69" d="M 603 3500 
L 1178 3500 
L 1178 0 
L 603 0 
L 603 3500 
z
M 603 4863 
L 1178 4863 
L 1178 4134 
L 603 4134 
L 603 4863 
z
" transform="scale(0.015625)"/>
       <path id="DejaVuSans-73" d="M 2834 3397 
L 2834 2853 
Q 2591 2978 2328 3040 
Q 2066 3103 1784 3103 
Q 1356 3103 1142 2972 
Q 928 2841 928 2578 
Q 928 2378 1081 2264 
Q 1234 2150 1697 2047 
L 1894 2003 
Q 2506 1872 2764 1633 
Q 3022 1394 3022 966 
Q 3022 478 2636 193 
Q 2250 -91 1575 -91 
Q 1294 -91 989 -36 
Q 684 19 347 128 
L 347 722 
Q 666 556 975 473 
Q 1284 391 1588 391 
Q 1994 391 2212 530 
Q 2431 669 2431 922 
Q 2431 1156 2273 1281 
Q 2116 1406 1581 1522 
L 1381 1569 
Q 847 1681 609 1914 
Q 372 2147 372 2553 
Q 372 3047 722 3315 
Q 1072 3584 1716 3584 
Q 2034 3584 2315 3537 
Q 2597 3491 2834 3397 
z
" transform="scale(0.015625)"/>
       <path id="DejaVuSans-75" d="M 544 1381 
L 544 3500 
L 1119 3500 
L 1119 1403 
Q 1119 906 1312 657 
Q 1506 409 1894 409 
Q 2359 409 2629 706 
Q 2900 1003 2900 1516 
L 2900 3500 
L 3475 3500 
L 3475 0 
L 2900 0 
L 2900 538 
Q 2691 219 2414 64 
Q 2138 -91 1772 -91 
Q 1169 -91 856 284 
Q 544 659 544 1381 
z
M 1991 3584 
L 1991 3584 
z
" transform="scale(0.015625)"/>
       <path id="DejaVuSans-65" d="M 3597 1894 
L 3597 1613 
L 953 1613 
Q 991 1019 1311 708 
Q 1631 397 2203 397 
Q 2534 397 2845 478 
Q 3156 559 3463 722 
L 3463 178 
Q 3153 47 2828 -22 
Q 2503 -91 2169 -91 
Q 1331 -91 842 396 
Q 353 884 353 1716 
Q 353 2575 817 3079 
Q 1281 3584 2069 3584 
Q 2775 3584 3186 3129 
Q 3597 2675 3597 1894 
z
M 3022 2063 
Q 3016 2534 2758 2815 
Q 2500 3097 2075 3097 
Q 1594 3097 1305 2825 
Q 1016 2553 972 2059 
L 3022 2063 
z
" transform="scale(0.015625)"/>
      </defs>
      <use xlink:href="#DejaVuSans-4e"/>
      <use xlink:href="#DejaVuSans-6f" x="74.804688"/>
      <use xlink:href="#DejaVuSans-72" x="135.986328"/>
      <use xlink:href="#DejaVuSans-6d" x="175.349609"/>
      <use xlink:href="#DejaVuSans-61" x="272.761719"/>
      <use xlink:href="#DejaVuSans-6c" x="334.041016"/>
      <use xlink:href="#DejaVuSans-20" x="361.824219"/>
      <use xlink:href="#DejaVuSans-74" x="393.611328"/>
      <use xlink:href="#DejaVuSans-69" x="432.820312"/>
      <use xlink:href="#DejaVuSans-73" x="460.603516"/>
      <use xlink:href="#DejaVuSans-73" x="512.703125"/>
      <use xlink:href="#DejaVuSans-75" x="564.802734"/>
      <use xlink:href="#DejaVuSans-65" x="628.181641"/>
     </g>
    </g>
   </g>
  </g>
  <g id="axes_2">
   <g id="patch_8">
    <path d="M 33.64 272.31 
L 853.2 272.31 
L 853.2 148.705 
L 33.64 148.705 
z
" style="fill: #ffffff"/>
   </g>
   <g id="PolyCollection_2">
    <defs>
     <path id="ma0baf1c536" d="M 70.892727 -384.172003 
L 70.892727 -320.787491 
L 101.936667 -336.339322 
L 132.980606 -354.100354 
L 164.024545 -376.234296 
L 195.068485 -373.332926 
L 226.112424 -373.784313 
L 257.156364 -355.374909 
L 288.200303 -346.214146 
L 319.244242 -349.697973 
L 350.288182 -343.794709 
L 381.332121 -335.764444 
L 412.376061 -342.61456 
L 443.42 -347.703513 
L 474.463939 -340.178443 
L 505.507879 -326.045911 
L 536.551818 -327.122299 
L 567.595758 -332.714998 
L 598.639697 -331.80314 
L 629.683636 -331.520819 
L 660.727576 -331.756521 
L 691.771515 -322.049593 
L 722.815455 -321.67308 
L 753.859394 -314.922861 
L 784.903333 -315.180574 
L 815.947273 -311.735396 
L 815.947273 -357.23806 
L 815.947273 -357.23806 
L 784.903333 -353.613111 
L 753.859394 -353.822504 
L 722.815455 -355.425526 
L 691.771515 -362.175036 
L 660.727576 -391.51533 
L 629.683636 -396.782512 
L 598.639697 -396.274111 
L 567.595758 -385.113667 
L 536.551818 -384.05401 
L 505.507879 -382.58315 
L 474.463939 -393.530168 
L 443.42 -395.832329 
L 412.376061 -393.485991 
L 381.332121 -392.062683 
L 350.288182 -397.469479 
L 319.244242 -400.417036 
L 288.200303 -391.814174 
L 257.156364 -397.406879 
L 226.112424 -408.219579 
L 195.068485 -414.333926 
L 164.024545 -420.767118 
L 132.980606 -404.65095 
L 101.936667 -392.520437 
L 70.892727 -384.172003 
z
" style="stroke: #ff0000; stroke-opacity: 0.2"/>
    </defs>
    <g clip-path="url(#p064223fc57)">
     <use xlink:href="#ma0baf1c536" x="0" y="576" style="fill: #ff0000; fill-opacity: 0.2; stroke: #ff0000; stroke-opacity: 0.2"/>
    </g>
   </g>
   <g id="matplotlib.axis_3">
    <g id="xtick_8">
     <g id="line2d_16">
      <g>
       <use xlink:href="#mcf9a8203fc" x="70.892727" y="272.31" style="stroke: #000000; stroke-width: 0.8"/>
      </g>
     </g>
    </g>
    <g id="xtick_9">
     <g id="line2d_17">
      <g>
       <use xlink:href="#mcf9a8203fc" x="195.068485" y="272.31" style="stroke: #000000; stroke-width: 0.8"/>
      </g>
     </g>
    </g>
    <g id="xtick_10">
     <g id="line2d_18">
      <g>
       <use xlink:href="#mcf9a8203fc" x="319.244242" y="272.31" style="stroke: #000000; stroke-width: 0.8"/>
      </g>
     </g>
    </g>
    <g id="xtick_11">
     <g id="line2d_19">
      <g>
       <use xlink:href="#mcf9a8203fc" x="443.42" y="272.31" style="stroke: #000000; stroke-width: 0.8"/>
      </g>
     </g>
    </g>
    <g id="xtick_12">
     <g id="line2d_20">
      <g>
       <use xlink:href="#mcf9a8203fc" x="567.595758" y="272.31" style="stroke: #000000; stroke-width: 0.8"/>
      </g>
     </g>
    </g>
    <g id="xtick_13">
     <g id="line2d_21">
      <g>
       <use xlink:href="#mcf9a8203fc" x="691.771515" y="272.31" style="stroke: #000000; stroke-width: 0.8"/>
      </g>
     </g>
    </g>
    <g id="xtick_14">
     <g id="line2d_22">
      <g>
       <use xlink:href="#mcf9a8203fc" x="815.947273" y="272.31" style="stroke: #000000; stroke-width: 0.8"/>
      </g>
     </g>
    </g>
   </g>
   <g id="matplotlib.axis_4">
    <g id="ytick_7">
     <g id="line2d_23">
      <g>
       <use xlink:href="#ma24123d782" x="33.64" y="262.738792" style="stroke: #000000; stroke-width: 0.8"/>
      </g>
     </g>
     <g id="text_8">
      <!-- 0.0 -->
      <g transform="translate(10.736875 266.538011) scale(0.1 -0.1)">
       <use xlink:href="#DejaVuSans-30"/>
       <use xlink:href="#DejaVuSans-2e" x="63.623047"/>
       <use xlink:href="#DejaVuSans-30" x="95.410156"/>
      </g>
     </g>
    </g>
    <g id="ytick_8">
     <g id="line2d_24">
      <g>
       <use xlink:href="#ma24123d782" x="33.64" y="241.622182" style="stroke: #000000; stroke-width: 0.8"/>
      </g>
     </g>
     <g id="text_9">
      <!-- 0.2 -->
      <g transform="translate(10.736875 245.421401) scale(0.1 -0.1)">
       <use xlink:href="#DejaVuSans-30"/>
       <use xlink:href="#DejaVuSans-2e" x="63.623047"/>
       <use xlink:href="#DejaVuSans-32" x="95.410156"/>
      </g>
     </g>
    </g>
    <g id="ytick_9">
     <g id="line2d_25">
      <g>
       <use xlink:href="#ma24123d782" x="33.64" y="220.505572" style="stroke: #000000; stroke-width: 0.8"/>
      </g>
     </g>
     <g id="text_10">
      <!-- 0.4 -->
      <g transform="translate(10.736875 224.304791) scale(0.1 -0.1)">
       <use xlink:href="#DejaVuSans-30"/>
       <use xlink:href="#DejaVuSans-2e" x="63.623047"/>
       <use xlink:href="#DejaVuSans-34" x="95.410156"/>
      </g>
     </g>
    </g>
    <g id="ytick_10">
     <g id="line2d_26">
      <g>
       <use xlink:href="#ma24123d782" x="33.64" y="199.388962" style="stroke: #000000; stroke-width: 0.8"/>
      </g>
     </g>
     <g id="text_11">
      <!-- 0.6 -->
      <g transform="translate(10.736875 203.188181) scale(0.1 -0.1)">
       <use xlink:href="#DejaVuSans-30"/>
       <use xlink:href="#DejaVuSans-2e" x="63.623047"/>
       <use xlink:href="#DejaVuSans-36" x="95.410156"/>
      </g>
     </g>
    </g>
    <g id="ytick_11">
     <g id="line2d_27">
      <g>
       <use xlink:href="#ma24123d782" x="33.64" y="178.272352" style="stroke: #000000; stroke-width: 0.8"/>
      </g>
     </g>
     <g id="text_12">
      <!-- 0.8 -->
      <g transform="translate(10.736875 182.071571) scale(0.1 -0.1)">
       <use xlink:href="#DejaVuSans-30"/>
       <use xlink:href="#DejaVuSans-2e" x="63.623047"/>
       <use xlink:href="#DejaVuSans-38" x="95.410156"/>
      </g>
     </g>
    </g>
    <g id="ytick_12">
     <g id="line2d_28">
      <g>
       <use xlink:href="#ma24123d782" x="33.64" y="157.155742" style="stroke: #000000; stroke-width: 0.8"/>
      </g>
     </g>
     <g id="text_13">
      <!-- 1.0 -->
      <g transform="translate(10.736875 160.95496) scale(0.1 -0.1)">
       <use xlink:href="#DejaVuSans-31"/>
       <use xlink:href="#DejaVuSans-2e" x="63.623047"/>
       <use xlink:href="#DejaVuSans-30" x="95.410156"/>
      </g>
     </g>
    </g>
   </g>
   <g id="line2d_29">
    <path d="M 70.892727 223.520253 
L 101.936667 211.570121 
L 132.980606 196.624348 
L 164.024545 177.499293 
L 195.068485 182.166574 
L 226.112424 184.998054 
L 257.156364 199.609106 
L 288.200303 206.98584 
L 319.244242 200.942495 
L 350.288182 205.367906 
L 381.332121 212.086437 
L 412.376061 207.949725 
L 443.42 204.232079 
L 474.463939 209.145695 
L 505.507879 221.685469 
L 536.551818 220.411846 
L 567.595758 217.085668 
L 598.639697 211.961375 
L 629.683636 211.848335 
L 660.727576 214.364075 
L 691.771515 233.887685 
L 722.815455 237.450697 
L 753.859394 241.627317 
L 784.903333 241.603158 
L 815.947273 241.513272 
" clip-path="url(#p064223fc57)" style="fill: none; stroke: #ff0000; stroke-width: 1.5; stroke-linecap: square"/>
    <defs>
     <path id="m333e861f86" d="M 0 3 
C 0.795609 3 1.55874 2.683901 2.12132 2.12132 
C 2.683901 1.55874 3 0.795609 3 0 
C 3 -0.795609 2.683901 -1.55874 2.12132 -2.12132 
C 1.55874 -2.683901 0.795609 -3 0 -3 
C -0.795609 -3 -1.55874 -2.683901 -2.12132 -2.12132 
C -2.683901 -1.55874 -3 -0.795609 -3 0 
C -3 0.795609 -2.683901 1.55874 -2.12132 2.12132 
C -1.55874 2.683901 -0.795609 3 0 3 
z
" style="stroke: #ff0000"/>
    </defs>
    <g clip-path="url(#p064223fc57)">
     <use xlink:href="#m333e861f86" x="70.892727" y="223.520253" style="fill: #ff0000; stroke: #ff0000"/>
     <use xlink:href="#m333e861f86" x="101.936667" y="211.570121" style="fill: #ff0000; stroke: #ff0000"/>
     <use xlink:href="#m333e861f86" x="132.980606" y="196.624348" style="fill: #ff0000; stroke: #ff0000"/>
     <use xlink:href="#m333e861f86" x="164.024545" y="177.499293" style="fill: #ff0000; stroke: #ff0000"/>
     <use xlink:href="#m333e861f86" x="195.068485" y="182.166574" style="fill: #ff0000; stroke: #ff0000"/>
     <use xlink:href="#m333e861f86" x="226.112424" y="184.998054" style="fill: #ff0000; stroke: #ff0000"/>
     <use xlink:href="#m333e861f86" x="257.156364" y="199.609106" style="fill: #ff0000; stroke: #ff0000"/>
     <use xlink:href="#m333e861f86" x="288.200303" y="206.98584" style="fill: #ff0000; stroke: #ff0000"/>
     <use xlink:href="#m333e861f86" x="319.244242" y="200.942495" style="fill: #ff0000; stroke: #ff0000"/>
     <use xlink:href="#m333e861f86" x="350.288182" y="205.367906" style="fill: #ff0000; stroke: #ff0000"/>
     <use xlink:href="#m333e861f86" x="381.332121" y="212.086437" style="fill: #ff0000; stroke: #ff0000"/>
     <use xlink:href="#m333e861f86" x="412.376061" y="207.949725" style="fill: #ff0000; stroke: #ff0000"/>
     <use xlink:href="#m333e861f86" x="443.42" y="204.232079" style="fill: #ff0000; stroke: #ff0000"/>
     <use xlink:href="#m333e861f86" x="474.463939" y="209.145695" style="fill: #ff0000; stroke: #ff0000"/>
     <use xlink:href="#m333e861f86" x="505.507879" y="221.685469" style="fill: #ff0000; stroke: #ff0000"/>
     <use xlink:href="#m333e861f86" x="536.551818" y="220.411846" style="fill: #ff0000; stroke: #ff0000"/>
     <use xlink:href="#m333e861f86" x="567.595758" y="217.085668" style="fill: #ff0000; stroke: #ff0000"/>
     <use xlink:href="#m333e861f86" x="598.639697" y="211.961375" style="fill: #ff0000; stroke: #ff0000"/>
     <use xlink:href="#m333e861f86" x="629.683636" y="211.848335" style="fill: #ff0000; stroke: #ff0000"/>
     <use xlink:href="#m333e861f86" x="660.727576" y="214.364075" style="fill: #ff0000; stroke: #ff0000"/>
     <use xlink:href="#m333e861f86" x="691.771515" y="233.887685" style="fill: #ff0000; stroke: #ff0000"/>
     <use xlink:href="#m333e861f86" x="722.815455" y="237.450697" style="fill: #ff0000; stroke: #ff0000"/>
     <use xlink:href="#m333e861f86" x="753.859394" y="241.627317" style="fill: #ff0000; stroke: #ff0000"/>
     <use xlink:href="#m333e861f86" x="784.903333" y="241.603158" style="fill: #ff0000; stroke: #ff0000"/>
     <use xlink:href="#m333e861f86" x="815.947273" y="241.513272" style="fill: #ff0000; stroke: #ff0000"/>
    </g>
   </g>
   <g id="patch_9">
    <path d="M 33.64 272.31 
L 33.64 148.705 
" style="fill: none; stroke: #000000; stroke-width: 0.8; stroke-linejoin: miter; stroke-linecap: square"/>
   </g>
   <g id="patch_10">
    <path d="M 853.2 272.31 
L 853.2 148.705 
" style="fill: none; stroke: #000000; stroke-width: 0.8; stroke-linejoin: miter; stroke-linecap: square"/>
   </g>
   <g id="patch_11">
    <path d="M 33.64 272.31 
L 853.2 272.31 
" style="fill: none; stroke: #000000; stroke-width: 0.8; stroke-linejoin: miter; stroke-linecap: square"/>
   </g>
   <g id="patch_12">
    <path d="M 33.64 148.705 
L 853.2 148.705 
" style="fill: none; stroke: #000000; stroke-width: 0.8; stroke-linejoin: miter; stroke-linecap: square"/>
   </g>
   <g id="legend_2">
    <g id="patch_13">
     <path d="M 741.604688 171.383125 
L 846.2 171.383125 
Q 848.2 171.383125 848.2 169.383125 
L 848.2 155.705 
Q 848.2 153.705 846.2 153.705 
L 741.604688 153.705 
Q 739.604688 153.705 739.604688 155.705 
L 739.604688 169.383125 
Q 739.604688 171.383125 741.604688 171.383125 
z
" style="fill: #ffffff; opacity: 0.8; stroke: #cccccc; stroke-linejoin: miter"/>
    </g>
    <g id="line2d_30">
     <path d="M 743.604688 161.803437 
L 753.604688 161.803437 
L 763.604688 161.803437 
" style="fill: none; stroke: #ff0000; stroke-width: 1.5; stroke-linecap: square"/>
     <g>
      <use xlink:href="#m333e861f86" x="753.604688" y="161.803437" style="fill: #ff0000; stroke: #ff0000"/>
     </g>
    </g>
    <g id="text_14">
     <!-- Tumoral tissue -->
     <g transform="translate(771.604688 165.303437) scale(0.1 -0.1)">
      <defs>
       <path id="DejaVuSans-54" d="M -19 4666 
L 3928 4666 
L 3928 4134 
L 2272 4134 
L 2272 0 
L 1638 0 
L 1638 4134 
L -19 4134 
L -19 4666 
z
" transform="scale(0.015625)"/>
      </defs>
      <use xlink:href="#DejaVuSans-54"/>
      <use xlink:href="#DejaVuSans-75" x="45.958984"/>
      <use xlink:href="#DejaVuSans-6d" x="109.337891"/>
      <use xlink:href="#DejaVuSans-6f" x="206.75"/>
      <use xlink:href="#DejaVuSans-72" x="267.931641"/>
      <use xlink:href="#DejaVuSans-61" x="309.044922"/>
      <use xlink:href="#DejaVuSans-6c" x="370.324219"/>
      <use xlink:href="#DejaVuSans-20" x="398.107422"/>
      <use xlink:href="#DejaVuSans-74" x="429.894531"/>
      <use xlink:href="#DejaVuSans-69" x="469.103516"/>
      <use xlink:href="#DejaVuSans-73" x="496.886719"/>
      <use xlink:href="#DejaVuSans-73" x="548.986328"/>
      <use xlink:href="#DejaVuSans-75" x="601.085938"/>
      <use xlink:href="#DejaVuSans-65" x="664.464844"/>
     </g>
    </g>
   </g>
  </g>
  <g id="axes_3">
   <g id="patch_14">
    <path d="M 33.64 410.215 
L 853.2 410.215 
L 853.2 286.61 
L 33.64 286.61 
z
" style="fill: #ffffff"/>
   </g>
   <g id="PolyCollection_3">
    <defs>
     <path id="m1bc2812c2f" d="M 70.892727 -229.71581 
L 70.892727 -171.403409 
L 101.936667 -187.545244 
L 132.980606 -210.652309 
L 164.024545 -234.132481 
L 195.068485 -237.917247 
L 226.112424 -235.876837 
L 257.156364 -225.764275 
L 288.200303 -212.143892 
L 319.244242 -215.977217 
L 350.288182 -214.394028 
L 381.332121 -204.365992 
L 412.376061 -209.103272 
L 443.42 -211.030324 
L 474.463939 -202.56316 
L 505.507879 -192.243753 
L 536.551818 -185.808767 
L 567.595758 -194.016289 
L 598.639697 -197.672779 
L 629.683636 -200.753394 
L 660.727576 -200.89158 
L 691.771515 -186.016302 
L 722.815455 -185.265275 
L 753.859394 -184.182539 
L 784.903333 -186.367991 
L 815.947273 -185.645006 
L 815.947273 -243.419284 
L 815.947273 -243.419284 
L 784.903333 -241.380553 
L 753.859394 -238.535114 
L 722.815455 -236.613118 
L 691.771515 -239.920752 
L 660.727576 -260.770065 
L 629.683636 -263.756097 
L 598.639697 -259.994161 
L 567.595758 -245.550794 
L 536.551818 -240.981054 
L 505.507879 -243.651941 
L 474.463939 -251.426232 
L 443.42 -253.485024 
L 412.376061 -251.428341 
L 381.332121 -253.070937 
L 350.288182 -259.134294 
L 319.244242 -260.592608 
L 288.200303 -255.624305 
L 257.156364 -260.078559 
L 226.112424 -270.881511 
L 195.068485 -280.821919 
L 164.024545 -283.586386 
L 132.980606 -260.165881 
L 101.936667 -239.831943 
L 70.892727 -229.71581 
z
" style="stroke: #0000ff; stroke-opacity: 0.2"/>
    </defs>
    <g clip-path="url(#p2a97293f85)">
     <use xlink:href="#m1bc2812c2f" x="0" y="576" style="fill: #0000ff; fill-opacity: 0.2; stroke: #0000ff; stroke-opacity: 0.2"/>
    </g>
   </g>
   <g id="matplotlib.axis_5">
    <g id="xtick_15">
     <g id="line2d_31">
      <g>
       <use xlink:href="#mcf9a8203fc" x="70.892727" y="410.215" style="stroke: #000000; stroke-width: 0.8"/>
      </g>
     </g>
    </g>
    <g id="xtick_16">
     <g id="line2d_32">
      <g>
       <use xlink:href="#mcf9a8203fc" x="195.068485" y="410.215" style="stroke: #000000; stroke-width: 0.8"/>
      </g>
     </g>
    </g>
    <g id="xtick_17">
     <g id="line2d_33">
      <g>
       <use xlink:href="#mcf9a8203fc" x="319.244242" y="410.215" style="stroke: #000000; stroke-width: 0.8"/>
      </g>
     </g>
    </g>
    <g id="xtick_18">
     <g id="line2d_34">
      <g>
       <use xlink:href="#mcf9a8203fc" x="443.42" y="410.215" style="stroke: #000000; stroke-width: 0.8"/>
      </g>
     </g>
    </g>
    <g id="xtick_19">
     <g id="line2d_35">
      <g>
       <use xlink:href="#mcf9a8203fc" x="567.595758" y="410.215" style="stroke: #000000; stroke-width: 0.8"/>
      </g>
     </g>
    </g>
    <g id="xtick_20">
     <g id="line2d_36">
      <g>
       <use xlink:href="#mcf9a8203fc" x="691.771515" y="410.215" style="stroke: #000000; stroke-width: 0.8"/>
      </g>
     </g>
    </g>
    <g id="xtick_21">
     <g id="line2d_37">
      <g>
       <use xlink:href="#mcf9a8203fc" x="815.947273" y="410.215" style="stroke: #000000; stroke-width: 0.8"/>
      </g>
     </g>
    </g>
   </g>
   <g id="matplotlib.axis_6">
    <g id="ytick_13">
     <g id="line2d_38">
      <g>
       <use xlink:href="#ma24123d782" x="33.64" y="400.643792" style="stroke: #000000; stroke-width: 0.8"/>
      </g>
     </g>
     <g id="text_15">
      <!-- 0.0 -->
      <g transform="translate(10.736875 404.443011) scale(0.1 -0.1)">
       <use xlink:href="#DejaVuSans-30"/>
       <use xlink:href="#DejaVuSans-2e" x="63.623047"/>
       <use xlink:href="#DejaVuSans-30" x="95.410156"/>
      </g>
     </g>
    </g>
    <g id="ytick_14">
     <g id="line2d_39">
      <g>
       <use xlink:href="#ma24123d782" x="33.64" y="379.527182" style="stroke: #000000; stroke-width: 0.8"/>
      </g>
     </g>
     <g id="text_16">
      <!-- 0.2 -->
      <g transform="translate(10.736875 383.326401) scale(0.1 -0.1)">
       <use xlink:href="#DejaVuSans-30"/>
       <use xlink:href="#DejaVuSans-2e" x="63.623047"/>
       <use xlink:href="#DejaVuSans-32" x="95.410156"/>
      </g>
     </g>
    </g>
    <g id="ytick_15">
     <g id="line2d_40">
      <g>
       <use xlink:href="#ma24123d782" x="33.64" y="358.410572" style="stroke: #000000; stroke-width: 0.8"/>
      </g>
     </g>
     <g id="text_17">
      <!-- 0.4 -->
      <g transform="translate(10.736875 362.209791) scale(0.1 -0.1)">
       <use xlink:href="#DejaVuSans-30"/>
       <use xlink:href="#DejaVuSans-2e" x="63.623047"/>
       <use xlink:href="#DejaVuSans-34" x="95.410156"/>
      </g>
     </g>
    </g>
    <g id="ytick_16">
     <g id="line2d_41">
      <g>
       <use xlink:href="#ma24123d782" x="33.64" y="337.293962" style="stroke: #000000; stroke-width: 0.8"/>
      </g>
     </g>
     <g id="text_18">
      <!-- 0.6 -->
      <g transform="translate(10.736875 341.093181) scale(0.1 -0.1)">
       <use xlink:href="#DejaVuSans-30"/>
       <use xlink:href="#DejaVuSans-2e" x="63.623047"/>
       <use xlink:href="#DejaVuSans-36" x="95.410156"/>
      </g>
     </g>
    </g>
    <g id="ytick_17">
     <g id="line2d_42">
      <g>
       <use xlink:href="#ma24123d782" x="33.64" y="316.177352" style="stroke: #000000; stroke-width: 0.8"/>
      </g>
     </g>
     <g id="text_19">
      <!-- 0.8 -->
      <g transform="translate(10.736875 319.976571) scale(0.1 -0.1)">
       <use xlink:href="#DejaVuSans-30"/>
       <use xlink:href="#DejaVuSans-2e" x="63.623047"/>
       <use xlink:href="#DejaVuSans-38" x="95.410156"/>
      </g>
     </g>
    </g>
    <g id="ytick_18">
     <g id="line2d_43">
      <g>
       <use xlink:href="#ma24123d782" x="33.64" y="295.060742" style="stroke: #000000; stroke-width: 0.8"/>
      </g>
     </g>
     <g id="text_20">
      <!-- 1.0 -->
      <g transform="translate(10.736875 298.85996) scale(0.1 -0.1)">
       <use xlink:href="#DejaVuSans-31"/>
       <use xlink:href="#DejaVuSans-2e" x="63.623047"/>
       <use xlink:href="#DejaVuSans-30" x="95.410156"/>
      </g>
     </g>
    </g>
   </g>
   <g id="line2d_44">
    <path d="M 70.892727 375.44039 
L 101.936667 362.311407 
L 132.980606 340.590905 
L 164.024545 317.140567 
L 195.068485 316.630417 
L 226.112424 322.620826 
L 257.156364 333.078583 
L 288.200303 342.115901 
L 319.244242 337.715088 
L 350.288182 339.235839 
L 381.332121 347.281535 
L 412.376061 345.734193 
L 443.42 343.742326 
L 474.463939 349.005304 
L 505.507879 358.052153 
L 536.551818 362.60509 
L 567.595758 356.216459 
L 598.639697 347.16653 
L 629.683636 343.745254 
L 660.727576 345.169177 
L 691.771515 363.031473 
L 722.815455 365.060803 
L 753.859394 364.641173 
L 784.903333 362.125728 
L 815.947273 361.467855 
" clip-path="url(#p2a97293f85)" style="fill: none; stroke: #0000ff; stroke-width: 1.5; stroke-linecap: square"/>
    <defs>
     <path id="m02fbcffbba" d="M 0 3 
C 0.795609 3 1.55874 2.683901 2.12132 2.12132 
C 2.683901 1.55874 3 0.795609 3 0 
C 3 -0.795609 2.683901 -1.55874 2.12132 -2.12132 
C 1.55874 -2.683901 0.795609 -3 0 -3 
C -0.795609 -3 -1.55874 -2.683901 -2.12132 -2.12132 
C -2.683901 -1.55874 -3 -0.795609 -3 0 
C -3 0.795609 -2.683901 1.55874 -2.12132 2.12132 
C -1.55874 2.683901 -0.795609 3 0 3 
z
" style="stroke: #0000ff"/>
    </defs>
    <g clip-path="url(#p2a97293f85)">
     <use xlink:href="#m02fbcffbba" x="70.892727" y="375.44039" style="fill: #0000ff; stroke: #0000ff"/>
     <use xlink:href="#m02fbcffbba" x="101.936667" y="362.311407" style="fill: #0000ff; stroke: #0000ff"/>
     <use xlink:href="#m02fbcffbba" x="132.980606" y="340.590905" style="fill: #0000ff; stroke: #0000ff"/>
     <use xlink:href="#m02fbcffbba" x="164.024545" y="317.140567" style="fill: #0000ff; stroke: #0000ff"/>
     <use xlink:href="#m02fbcffbba" x="195.068485" y="316.630417" style="fill: #0000ff; stroke: #0000ff"/>
     <use xlink:href="#m02fbcffbba" x="226.112424" y="322.620826" style="fill: #0000ff; stroke: #0000ff"/>
     <use xlink:href="#m02fbcffbba" x="257.156364" y="333.078583" style="fill: #0000ff; stroke: #0000ff"/>
     <use xlink:href="#m02fbcffbba" x="288.200303" y="342.115901" style="fill: #0000ff; stroke: #0000ff"/>
     <use xlink:href="#m02fbcffbba" x="319.244242" y="337.715088" style="fill: #0000ff; stroke: #0000ff"/>
     <use xlink:href="#m02fbcffbba" x="350.288182" y="339.235839" style="fill: #0000ff; stroke: #0000ff"/>
     <use xlink:href="#m02fbcffbba" x="381.332121" y="347.281535" style="fill: #0000ff; stroke: #0000ff"/>
     <use xlink:href="#m02fbcffbba" x="412.376061" y="345.734193" style="fill: #0000ff; stroke: #0000ff"/>
     <use xlink:href="#m02fbcffbba" x="443.42" y="343.742326" style="fill: #0000ff; stroke: #0000ff"/>
     <use xlink:href="#m02fbcffbba" x="474.463939" y="349.005304" style="fill: #0000ff; stroke: #0000ff"/>
     <use xlink:href="#m02fbcffbba" x="505.507879" y="358.052153" style="fill: #0000ff; stroke: #0000ff"/>
     <use xlink:href="#m02fbcffbba" x="536.551818" y="362.60509" style="fill: #0000ff; stroke: #0000ff"/>
     <use xlink:href="#m02fbcffbba" x="567.595758" y="356.216459" style="fill: #0000ff; stroke: #0000ff"/>
     <use xlink:href="#m02fbcffbba" x="598.639697" y="347.16653" style="fill: #0000ff; stroke: #0000ff"/>
     <use xlink:href="#m02fbcffbba" x="629.683636" y="343.745254" style="fill: #0000ff; stroke: #0000ff"/>
     <use xlink:href="#m02fbcffbba" x="660.727576" y="345.169177" style="fill: #0000ff; stroke: #0000ff"/>
     <use xlink:href="#m02fbcffbba" x="691.771515" y="363.031473" style="fill: #0000ff; stroke: #0000ff"/>
     <use xlink:href="#m02fbcffbba" x="722.815455" y="365.060803" style="fill: #0000ff; stroke: #0000ff"/>
     <use xlink:href="#m02fbcffbba" x="753.859394" y="364.641173" style="fill: #0000ff; stroke: #0000ff"/>
     <use xlink:href="#m02fbcffbba" x="784.903333" y="362.125728" style="fill: #0000ff; stroke: #0000ff"/>
     <use xlink:href="#m02fbcffbba" x="815.947273" y="361.467855" style="fill: #0000ff; stroke: #0000ff"/>
    </g>
   </g>
   <g id="patch_15">
    <path d="M 33.64 410.215 
L 33.64 286.61 
" style="fill: none; stroke: #000000; stroke-width: 0.8; stroke-linejoin: miter; stroke-linecap: square"/>
   </g>
   <g id="patch_16">
    <path d="M 853.2 410.215 
L 853.2 286.61 
" style="fill: none; stroke: #000000; stroke-width: 0.8; stroke-linejoin: miter; stroke-linecap: square"/>
   </g>
   <g id="patch_17">
    <path d="M 33.64 410.215 
L 853.2 410.215 
" style="fill: none; stroke: #000000; stroke-width: 0.8; stroke-linejoin: miter; stroke-linecap: square"/>
   </g>
   <g id="patch_18">
    <path d="M 33.64 286.61 
L 853.2 286.61 
" style="fill: none; stroke: #000000; stroke-width: 0.8; stroke-linejoin: miter; stroke-linecap: square"/>
   </g>
   <g id="legend_3">
    <g id="patch_19">
     <path d="M 746.165625 309.288125 
L 846.2 309.288125 
Q 848.2 309.288125 848.2 307.288125 
L 848.2 293.61 
Q 848.2 291.61 846.2 291.61 
L 746.165625 291.61 
Q 744.165625 291.61 744.165625 293.61 
L 744.165625 307.288125 
Q 744.165625 309.288125 746.165625 309.288125 
z
" style="fill: #ffffff; opacity: 0.8; stroke: #cccccc; stroke-linejoin: miter"/>
    </g>
    <g id="line2d_45">
     <path d="M 748.165625 299.708438 
L 758.165625 299.708438 
L 768.165625 299.708438 
" style="fill: none; stroke: #0000ff; stroke-width: 1.5; stroke-linecap: square"/>
     <g>
      <use xlink:href="#m02fbcffbba" x="758.165625" y="299.708438" style="fill: #0000ff; stroke: #0000ff"/>
     </g>
    </g>
    <g id="text_21">
     <!-- Blood vessels -->
     <g transform="translate(776.165625 303.208438) scale(0.1 -0.1)">
      <defs>
       <path id="DejaVuSans-42" d="M 1259 2228 
L 1259 519 
L 2272 519 
Q 2781 519 3026 730 
Q 3272 941 3272 1375 
Q 3272 1813 3026 2020 
Q 2781 2228 2272 2228 
L 1259 2228 
z
M 1259 4147 
L 1259 2741 
L 2194 2741 
Q 2656 2741 2882 2914 
Q 3109 3088 3109 3444 
Q 3109 3797 2882 3972 
Q 2656 4147 2194 4147 
L 1259 4147 
z
M 628 4666 
L 2241 4666 
Q 2963 4666 3353 4366 
Q 3744 4066 3744 3513 
Q 3744 3084 3544 2831 
Q 3344 2578 2956 2516 
Q 3422 2416 3680 2098 
Q 3938 1781 3938 1306 
Q 3938 681 3513 340 
Q 3088 0 2303 0 
L 628 0 
L 628 4666 
z
" transform="scale(0.015625)"/>
       <path id="DejaVuSans-64" d="M 2906 2969 
L 2906 4863 
L 3481 4863 
L 3481 0 
L 2906 0 
L 2906 525 
Q 2725 213 2448 61 
Q 2172 -91 1784 -91 
Q 1150 -91 751 415 
Q 353 922 353 1747 
Q 353 2572 751 3078 
Q 1150 3584 1784 3584 
Q 2172 3584 2448 3432 
Q 2725 3281 2906 2969 
z
M 947 1747 
Q 947 1113 1208 752 
Q 1469 391 1925 391 
Q 2381 391 2643 752 
Q 2906 1113 2906 1747 
Q 2906 2381 2643 2742 
Q 2381 3103 1925 3103 
Q 1469 3103 1208 2742 
Q 947 2381 947 1747 
z
" transform="scale(0.015625)"/>
       <path id="DejaVuSans-76" d="M 191 3500 
L 800 3500 
L 1894 563 
L 2988 3500 
L 3597 3500 
L 2284 0 
L 1503 0 
L 191 3500 
z
" transform="scale(0.015625)"/>
      </defs>
      <use xlink:href="#DejaVuSans-42"/>
      <use xlink:href="#DejaVuSans-6c" x="68.603516"/>
      <use xlink:href="#DejaVuSans-6f" x="96.386719"/>
      <use xlink:href="#DejaVuSans-6f" x="157.568359"/>
      <use xlink:href="#DejaVuSans-64" x="218.75"/>
      <use xlink:href="#DejaVuSans-20" x="282.226562"/>
      <use xlink:href="#DejaVuSans-76" x="314.013672"/>
      <use xlink:href="#DejaVuSans-65" x="373.193359"/>
      <use xlink:href="#DejaVuSans-73" x="434.716797"/>
      <use xlink:href="#DejaVuSans-73" x="486.816406"/>
      <use xlink:href="#DejaVuSans-65" x="538.916016"/>
      <use xlink:href="#DejaVuSans-6c" x="600.439453"/>
      <use xlink:href="#DejaVuSans-73" x="628.222656"/>
     </g>
    </g>
   </g>
  </g>
  <g id="axes_4">
   <g id="patch_20">
    <path d="M 33.64 548.12 
L 853.2 548.12 
L 853.2 424.515 
L 33.64 424.515 
z
" style="fill: #ffffff"/>
   </g>
   <g id="PolyCollection_4">
    <defs>
     <path id="m0b3b4452b4" d="M 70.892727 -138.955958 
L 70.892727 -90.10577 
L 101.936667 -95.773652 
L 132.980606 -104.644238 
L 164.024545 -113.407421 
L 195.068485 -111.562721 
L 226.112424 -102.355054 
L 257.156364 -91.229221 
L 288.200303 -86.035652 
L 319.244242 -85.456618 
L 350.288182 -74.659039 
L 381.332121 -58.637149 
L 412.376061 -62.718887 
L 443.42 -64.25453 
L 474.463939 -51.471181 
L 505.507879 -35.467147 
L 536.551818 -36.645709 
L 567.595758 -44.95212 
L 598.639697 -45.650009 
L 629.683636 -46.643436 
L 660.727576 -45.518806 
L 691.771515 -46.709852 
L 722.815455 -47.084536 
L 753.859394 -45.539 
L 784.903333 -47.880471 
L 815.947273 -46.141596 
L 815.947273 -88.842951 
L 815.947273 -88.842951 
L 784.903333 -82.188779 
L 753.859394 -79.167227 
L 722.815455 -76.633564 
L 691.771515 -81.498594 
L 660.727576 -97.010068 
L 629.683636 -106.444041 
L 598.639697 -105.255913 
L 567.595758 -87.017957 
L 536.551818 -78.435723 
L 505.507879 -77.111091 
L 474.463939 -92.139518 
L 443.42 -100.577336 
L 412.376061 -98.35999 
L 381.332121 -101.493871 
L 350.288182 -115.402652 
L 319.244242 -129.211912 
L 288.200303 -121.964124 
L 257.156364 -122.45459 
L 226.112424 -135.13428 
L 195.068485 -145.866591 
L 164.024545 -144.889115 
L 132.980606 -141.710317 
L 101.936667 -137.446709 
L 70.892727 -138.955958 
z
" style="stroke: #ff00ff; stroke-opacity: 0.2"/>
    </defs>
    <g clip-path="url(#pae9ef8a9d4)">
     <use xlink:href="#m0b3b4452b4" x="0" y="576" style="fill: #ff00ff; fill-opacity: 0.2; stroke: #ff00ff; stroke-opacity: 0.2"/>
    </g>
   </g>
   <g id="matplotlib.axis_7">
    <g id="xtick_22">
     <g id="line2d_46">
      <g>
       <use xlink:href="#mcf9a8203fc" x="70.892727" y="548.12" style="stroke: #000000; stroke-width: 0.8"/>
      </g>
     </g>
     <g id="text_22">
      <!-- 1 -->
      <g transform="translate(67.711477 562.718437) scale(0.1 -0.1)">
       <use xlink:href="#DejaVuSans-31"/>
      </g>
     </g>
    </g>
    <g id="xtick_23">
     <g id="line2d_47">
      <g>
       <use xlink:href="#mcf9a8203fc" x="195.068485" y="548.12" style="stroke: #000000; stroke-width: 0.8"/>
      </g>
     </g>
     <g id="text_23">
      <!-- 5 -->
      <g transform="translate(191.887235 562.718437) scale(0.1 -0.1)">
       <defs>
        <path id="DejaVuSans-35" d="M 691 4666 
L 3169 4666 
L 3169 4134 
L 1269 4134 
L 1269 2991 
Q 1406 3038 1543 3061 
Q 1681 3084 1819 3084 
Q 2600 3084 3056 2656 
Q 3513 2228 3513 1497 
Q 3513 744 3044 326 
Q 2575 -91 1722 -91 
Q 1428 -91 1123 -41 
Q 819 9 494 109 
L 494 744 
Q 775 591 1075 516 
Q 1375 441 1709 441 
Q 2250 441 2565 725 
Q 2881 1009 2881 1497 
Q 2881 1984 2565 2268 
Q 2250 2553 1709 2553 
Q 1456 2553 1204 2497 
Q 953 2441 691 2322 
L 691 4666 
z
" transform="scale(0.015625)"/>
       </defs>
       <use xlink:href="#DejaVuSans-35"/>
      </g>
     </g>
    </g>
    <g id="xtick_24">
     <g id="line2d_48">
      <g>
       <use xlink:href="#mcf9a8203fc" x="319.244242" y="548.12" style="stroke: #000000; stroke-width: 0.8"/>
      </g>
     </g>
     <g id="text_24">
      <!-- 9 -->
      <g transform="translate(316.062992 562.718437) scale(0.1 -0.1)">
       <defs>
        <path id="DejaVuSans-39" d="M 703 97 
L 703 672 
Q 941 559 1184 500 
Q 1428 441 1663 441 
Q 2288 441 2617 861 
Q 2947 1281 2994 2138 
Q 2813 1869 2534 1725 
Q 2256 1581 1919 1581 
Q 1219 1581 811 2004 
Q 403 2428 403 3163 
Q 403 3881 828 4315 
Q 1253 4750 1959 4750 
Q 2769 4750 3195 4129 
Q 3622 3509 3622 2328 
Q 3622 1225 3098 567 
Q 2575 -91 1691 -91 
Q 1453 -91 1209 -44 
Q 966 3 703 97 
z
M 1959 2075 
Q 2384 2075 2632 2365 
Q 2881 2656 2881 3163 
Q 2881 3666 2632 3958 
Q 2384 4250 1959 4250 
Q 1534 4250 1286 3958 
Q 1038 3666 1038 3163 
Q 1038 2656 1286 2365 
Q 1534 2075 1959 2075 
z
" transform="scale(0.015625)"/>
       </defs>
       <use xlink:href="#DejaVuSans-39"/>
      </g>
     </g>
    </g>
    <g id="xtick_25">
     <g id="line2d_49">
      <g>
       <use xlink:href="#mcf9a8203fc" x="443.42" y="548.12" style="stroke: #000000; stroke-width: 0.8"/>
      </g>
     </g>
     <g id="text_25">
      <!-- 13 -->
      <g transform="translate(437.0575 562.718437) scale(0.1 -0.1)">
       <defs>
        <path id="DejaVuSans-33" d="M 2597 2516 
Q 3050 2419 3304 2112 
Q 3559 1806 3559 1356 
Q 3559 666 3084 287 
Q 2609 -91 1734 -91 
Q 1441 -91 1130 -33 
Q 819 25 488 141 
L 488 750 
Q 750 597 1062 519 
Q 1375 441 1716 441 
Q 2309 441 2620 675 
Q 2931 909 2931 1356 
Q 2931 1769 2642 2001 
Q 2353 2234 1838 2234 
L 1294 2234 
L 1294 2753 
L 1863 2753 
Q 2328 2753 2575 2939 
Q 2822 3125 2822 3475 
Q 2822 3834 2567 4026 
Q 2313 4219 1838 4219 
Q 1578 4219 1281 4162 
Q 984 4106 628 3988 
L 628 4550 
Q 988 4650 1302 4700 
Q 1616 4750 1894 4750 
Q 2613 4750 3031 4423 
Q 3450 4097 3450 3541 
Q 3450 3153 3228 2886 
Q 3006 2619 2597 2516 
z
" transform="scale(0.015625)"/>
       </defs>
       <use xlink:href="#DejaVuSans-31"/>
       <use xlink:href="#DejaVuSans-33" x="63.623047"/>
      </g>
     </g>
    </g>
    <g id="xtick_26">
     <g id="line2d_50">
      <g>
       <use xlink:href="#mcf9a8203fc" x="567.595758" y="548.12" style="stroke: #000000; stroke-width: 0.8"/>
      </g>
     </g>
     <g id="text_26">
      <!-- 17 -->
      <g transform="translate(561.233258 562.718437) scale(0.1 -0.1)">
       <defs>
        <path id="DejaVuSans-37" d="M 525 4666 
L 3525 4666 
L 3525 4397 
L 1831 0 
L 1172 0 
L 2766 4134 
L 525 4134 
L 525 4666 
z
" transform="scale(0.015625)"/>
       </defs>
       <use xlink:href="#DejaVuSans-31"/>
       <use xlink:href="#DejaVuSans-37" x="63.623047"/>
      </g>
     </g>
    </g>
    <g id="xtick_27">
     <g id="line2d_51">
      <g>
       <use xlink:href="#mcf9a8203fc" x="691.771515" y="548.12" style="stroke: #000000; stroke-width: 0.8"/>
      </g>
     </g>
     <g id="text_27">
      <!-- 21 -->
      <g transform="translate(685.409015 562.718437) scale(0.1 -0.1)">
       <use xlink:href="#DejaVuSans-32"/>
       <use xlink:href="#DejaVuSans-31" x="63.623047"/>
      </g>
     </g>
    </g>
    <g id="xtick_28">
     <g id="line2d_52">
      <g>
       <use xlink:href="#mcf9a8203fc" x="815.947273" y="548.12" style="stroke: #000000; stroke-width: 0.8"/>
      </g>
     </g>
     <g id="text_28">
      <!-- 25 -->
      <g transform="translate(809.584773 562.718437) scale(0.1 -0.1)">
       <use xlink:href="#DejaVuSans-32"/>
       <use xlink:href="#DejaVuSans-35" x="63.623047"/>
      </g>
     </g>
    </g>
    <g id="text_29">
     <!-- Band -->
     <g transform="translate(430.5825 576.396562) scale(0.1 -0.1)">
      <defs>
       <path id="DejaVuSans-6e" d="M 3513 2113 
L 3513 0 
L 2938 0 
L 2938 2094 
Q 2938 2591 2744 2837 
Q 2550 3084 2163 3084 
Q 1697 3084 1428 2787 
Q 1159 2491 1159 1978 
L 1159 0 
L 581 0 
L 581 3500 
L 1159 3500 
L 1159 2956 
Q 1366 3272 1645 3428 
Q 1925 3584 2291 3584 
Q 2894 3584 3203 3211 
Q 3513 2838 3513 2113 
z
" transform="scale(0.015625)"/>
      </defs>
      <use xlink:href="#DejaVuSans-42"/>
      <use xlink:href="#DejaVuSans-61" x="68.603516"/>
      <use xlink:href="#DejaVuSans-6e" x="129.882812"/>
      <use xlink:href="#DejaVuSans-64" x="193.261719"/>
     </g>
    </g>
   </g>
   <g id="matplotlib.axis_8">
    <g id="ytick_19">
     <g id="line2d_53">
      <g>
       <use xlink:href="#ma24123d782" x="33.64" y="538.548792" style="stroke: #000000; stroke-width: 0.8"/>
      </g>
     </g>
     <g id="text_30">
      <!-- 0.0 -->
      <g transform="translate(10.736875 542.348011) scale(0.1 -0.1)">
       <use xlink:href="#DejaVuSans-30"/>
       <use xlink:href="#DejaVuSans-2e" x="63.623047"/>
       <use xlink:href="#DejaVuSans-30" x="95.410156"/>
      </g>
     </g>
    </g>
    <g id="ytick_20">
     <g id="line2d_54">
      <g>
       <use xlink:href="#ma24123d782" x="33.64" y="517.432182" style="stroke: #000000; stroke-width: 0.8"/>
      </g>
     </g>
     <g id="text_31">
      <!-- 0.2 -->
      <g transform="translate(10.736875 521.231401) scale(0.1 -0.1)">
       <use xlink:href="#DejaVuSans-30"/>
       <use xlink:href="#DejaVuSans-2e" x="63.623047"/>
       <use xlink:href="#DejaVuSans-32" x="95.410156"/>
      </g>
     </g>
    </g>
    <g id="ytick_21">
     <g id="line2d_55">
      <g>
       <use xlink:href="#ma24123d782" x="33.64" y="496.315572" style="stroke: #000000; stroke-width: 0.8"/>
      </g>
     </g>
     <g id="text_32">
      <!-- 0.4 -->
      <g transform="translate(10.736875 500.114791) scale(0.1 -0.1)">
       <use xlink:href="#DejaVuSans-30"/>
       <use xlink:href="#DejaVuSans-2e" x="63.623047"/>
       <use xlink:href="#DejaVuSans-34" x="95.410156"/>
      </g>
     </g>
    </g>
    <g id="ytick_22">
     <g id="line2d_56">
      <g>
       <use xlink:href="#ma24123d782" x="33.64" y="475.198962" style="stroke: #000000; stroke-width: 0.8"/>
      </g>
     </g>
     <g id="text_33">
      <!-- 0.6 -->
      <g transform="translate(10.736875 478.998181) scale(0.1 -0.1)">
       <use xlink:href="#DejaVuSans-30"/>
       <use xlink:href="#DejaVuSans-2e" x="63.623047"/>
       <use xlink:href="#DejaVuSans-36" x="95.410156"/>
      </g>
     </g>
    </g>
    <g id="ytick_23">
     <g id="line2d_57">
      <g>
       <use xlink:href="#ma24123d782" x="33.64" y="454.082352" style="stroke: #000000; stroke-width: 0.8"/>
      </g>
     </g>
     <g id="text_34">
      <!-- 0.8 -->
      <g transform="translate(10.736875 457.881571) scale(0.1 -0.1)">
       <use xlink:href="#DejaVuSans-30"/>
       <use xlink:href="#DejaVuSans-2e" x="63.623047"/>
       <use xlink:href="#DejaVuSans-38" x="95.410156"/>
      </g>
     </g>
    </g>
    <g id="ytick_24">
     <g id="line2d_58">
      <g>
       <use xlink:href="#ma24123d782" x="33.64" y="432.965742" style="stroke: #000000; stroke-width: 0.8"/>
      </g>
     </g>
     <g id="text_35">
      <!-- 1.0 -->
      <g transform="translate(10.736875 436.76496) scale(0.1 -0.1)">
       <use xlink:href="#DejaVuSans-31"/>
       <use xlink:href="#DejaVuSans-2e" x="63.623047"/>
       <use xlink:href="#DejaVuSans-30" x="95.410156"/>
      </g>
     </g>
    </g>
   </g>
   <g id="line2d_59">
    <path d="M 70.892727 461.469136 
L 101.936667 459.389819 
L 132.980606 452.822722 
L 164.024545 446.851732 
L 195.068485 447.285344 
L 226.112424 457.255333 
L 257.156364 469.158094 
L 288.200303 472.000112 
L 319.244242 468.665735 
L 350.288182 480.969155 
L 381.332121 495.93449 
L 412.376061 495.460562 
L 443.42 493.584067 
L 474.463939 504.194651 
L 505.507879 519.710881 
L 536.551818 518.459284 
L 567.595758 510.014961 
L 598.639697 500.547039 
L 629.683636 499.456261 
L 660.727576 504.735563 
L 691.771515 511.895777 
L 722.815455 514.14095 
L 753.859394 513.646886 
L 784.903333 510.965375 
L 815.947273 508.507726 
" clip-path="url(#pae9ef8a9d4)" style="fill: none; stroke: #ff00ff; stroke-width: 1.5; stroke-linecap: square"/>
    <defs>
     <path id="mc54d8a2054" d="M 0 3 
C 0.795609 3 1.55874 2.683901 2.12132 2.12132 
C 2.683901 1.55874 3 0.795609 3 0 
C 3 -0.795609 2.683901 -1.55874 2.12132 -2.12132 
C 1.55874 -2.683901 0.795609 -3 0 -3 
C -0.795609 -3 -1.55874 -2.683901 -2.12132 -2.12132 
C -2.683901 -1.55874 -3 -0.795609 -3 0 
C -3 0.795609 -2.683901 1.55874 -2.12132 2.12132 
C -1.55874 2.683901 -0.795609 3 0 3 
z
" style="stroke: #ff00ff"/>
    </defs>
    <g clip-path="url(#pae9ef8a9d4)">
     <use xlink:href="#mc54d8a2054" x="70.892727" y="461.469136" style="fill: #ff00ff; stroke: #ff00ff"/>
     <use xlink:href="#mc54d8a2054" x="101.936667" y="459.389819" style="fill: #ff00ff; stroke: #ff00ff"/>
     <use xlink:href="#mc54d8a2054" x="132.980606" y="452.822722" style="fill: #ff00ff; stroke: #ff00ff"/>
     <use xlink:href="#mc54d8a2054" x="164.024545" y="446.851732" style="fill: #ff00ff; stroke: #ff00ff"/>
     <use xlink:href="#mc54d8a2054" x="195.068485" y="447.285344" style="fill: #ff00ff; stroke: #ff00ff"/>
     <use xlink:href="#mc54d8a2054" x="226.112424" y="457.255333" style="fill: #ff00ff; stroke: #ff00ff"/>
     <use xlink:href="#mc54d8a2054" x="257.156364" y="469.158094" style="fill: #ff00ff; stroke: #ff00ff"/>
     <use xlink:href="#mc54d8a2054" x="288.200303" y="472.000112" style="fill: #ff00ff; stroke: #ff00ff"/>
     <use xlink:href="#mc54d8a2054" x="319.244242" y="468.665735" style="fill: #ff00ff; stroke: #ff00ff"/>
     <use xlink:href="#mc54d8a2054" x="350.288182" y="480.969155" style="fill: #ff00ff; stroke: #ff00ff"/>
     <use xlink:href="#mc54d8a2054" x="381.332121" y="495.93449" style="fill: #ff00ff; stroke: #ff00ff"/>
     <use xlink:href="#mc54d8a2054" x="412.376061" y="495.460562" style="fill: #ff00ff; stroke: #ff00ff"/>
     <use xlink:href="#mc54d8a2054" x="443.42" y="493.584067" style="fill: #ff00ff; stroke: #ff00ff"/>
     <use xlink:href="#mc54d8a2054" x="474.463939" y="504.194651" style="fill: #ff00ff; stroke: #ff00ff"/>
     <use xlink:href="#mc54d8a2054" x="505.507879" y="519.710881" style="fill: #ff00ff; stroke: #ff00ff"/>
     <use xlink:href="#mc54d8a2054" x="536.551818" y="518.459284" style="fill: #ff00ff; stroke: #ff00ff"/>
     <use xlink:href="#mc54d8a2054" x="567.595758" y="510.014961" style="fill: #ff00ff; stroke: #ff00ff"/>
     <use xlink:href="#mc54d8a2054" x="598.639697" y="500.547039" style="fill: #ff00ff; stroke: #ff00ff"/>
     <use xlink:href="#mc54d8a2054" x="629.683636" y="499.456261" style="fill: #ff00ff; stroke: #ff00ff"/>
     <use xlink:href="#mc54d8a2054" x="660.727576" y="504.735563" style="fill: #ff00ff; stroke: #ff00ff"/>
     <use xlink:href="#mc54d8a2054" x="691.771515" y="511.895777" style="fill: #ff00ff; stroke: #ff00ff"/>
     <use xlink:href="#mc54d8a2054" x="722.815455" y="514.14095" style="fill: #ff00ff; stroke: #ff00ff"/>
     <use xlink:href="#mc54d8a2054" x="753.859394" y="513.646886" style="fill: #ff00ff; stroke: #ff00ff"/>
     <use xlink:href="#mc54d8a2054" x="784.903333" y="510.965375" style="fill: #ff00ff; stroke: #ff00ff"/>
     <use xlink:href="#mc54d8a2054" x="815.947273" y="508.507726" style="fill: #ff00ff; stroke: #ff00ff"/>
    </g>
   </g>
   <g id="patch_21">
    <path d="M 33.64 548.12 
L 33.64 424.515 
" style="fill: none; stroke: #000000; stroke-width: 0.8; stroke-linejoin: miter; stroke-linecap: square"/>
   </g>
   <g id="patch_22">
    <path d="M 853.2 548.12 
L 853.2 424.515 
" style="fill: none; stroke: #000000; stroke-width: 0.8; stroke-linejoin: miter; stroke-linecap: square"/>
   </g>
   <g id="patch_23">
    <path d="M 33.64 548.12 
L 853.2 548.12 
" style="fill: none; stroke: #000000; stroke-width: 0.8; stroke-linejoin: miter; stroke-linecap: square"/>
   </g>
   <g id="patch_24">
    <path d="M 33.64 424.515 
L 853.2 424.515 
" style="fill: none; stroke: #000000; stroke-width: 0.8; stroke-linejoin: miter; stroke-linecap: square"/>
   </g>
   <g id="legend_4">
    <g id="patch_25">
     <path d="M 756.692188 447.193125 
L 846.2 447.193125 
Q 848.2 447.193125 848.2 445.193125 
L 848.2 431.515 
Q 848.2 429.515 846.2 429.515 
L 756.692188 429.515 
Q 754.692188 429.515 754.692188 431.515 
L 754.692188 445.193125 
Q 754.692188 447.193125 756.692188 447.193125 
z
" style="fill: #ffffff; opacity: 0.8; stroke: #cccccc; stroke-linejoin: miter"/>
    </g>
    <g id="line2d_60">
     <path d="M 758.692188 437.613438 
L 768.692188 437.613438 
L 778.692188 437.613438 
" style="fill: none; stroke: #ff00ff; stroke-width: 1.5; stroke-linecap: square"/>
     <g>
      <use xlink:href="#mc54d8a2054" x="768.692188" y="437.613438" style="fill: #ff00ff; stroke: #ff00ff"/>
     </g>
    </g>
    <g id="text_36">
     <!-- Dura mater -->
     <g transform="translate(786.692188 441.113438) scale(0.1 -0.1)">
      <defs>
       <path id="DejaVuSans-44" d="M 1259 4147 
L 1259 519 
L 2022 519 
Q 2988 519 3436 956 
Q 3884 1394 3884 2338 
Q 3884 3275 3436 3711 
Q 2988 4147 2022 4147 
L 1259 4147 
z
M 628 4666 
L 1925 4666 
Q 3281 4666 3915 4102 
Q 4550 3538 4550 2338 
Q 4550 1131 3912 565 
Q 3275 0 1925 0 
L 628 0 
L 628 4666 
z
" transform="scale(0.015625)"/>
      </defs>
      <use xlink:href="#DejaVuSans-44"/>
      <use xlink:href="#DejaVuSans-75" x="77.001953"/>
      <use xlink:href="#DejaVuSans-72" x="140.380859"/>
      <use xlink:href="#DejaVuSans-61" x="181.494141"/>
      <use xlink:href="#DejaVuSans-20" x="242.773438"/>
      <use xlink:href="#DejaVuSans-6d" x="274.560547"/>
      <use xlink:href="#DejaVuSans-61" x="371.972656"/>
      <use xlink:href="#DejaVuSans-74" x="433.251953"/>
      <use xlink:href="#DejaVuSans-65" x="472.460938"/>
      <use xlink:href="#DejaVuSans-72" x="533.984375"/>
     </g>
    </g>
   </g>
  </g>
  <g id="text_37">
   <!-- Normalized reflectance -->
   <g transform="translate(7.598438 345.957812) rotate(-90) scale(0.1 -0.1)">
    <defs>
     <path id="DejaVuSans-7a" d="M 353 3500 
L 3084 3500 
L 3084 2975 
L 922 459 
L 3084 459 
L 3084 0 
L 275 0 
L 275 525 
L 2438 3041 
L 353 3041 
L 353 3500 
z
" transform="scale(0.015625)"/>
     <path id="DejaVuSans-66" d="M 2375 4863 
L 2375 4384 
L 1825 4384 
Q 1516 4384 1395 4259 
Q 1275 4134 1275 3809 
L 1275 3500 
L 2222 3500 
L 2222 3053 
L 1275 3053 
L 1275 0 
L 697 0 
L 697 3053 
L 147 3053 
L 147 3500 
L 697 3500 
L 697 3744 
Q 697 4328 969 4595 
Q 1241 4863 1831 4863 
L 2375 4863 
z
" transform="scale(0.015625)"/>
     <path id="DejaVuSans-63" d="M 3122 3366 
L 3122 2828 
Q 2878 2963 2633 3030 
Q 2388 3097 2138 3097 
Q 1578 3097 1268 2742 
Q 959 2388 959 1747 
Q 959 1106 1268 751 
Q 1578 397 2138 397 
Q 2388 397 2633 464 
Q 2878 531 3122 666 
L 3122 134 
Q 2881 22 2623 -34 
Q 2366 -91 2075 -91 
Q 1284 -91 818 406 
Q 353 903 353 1747 
Q 353 2603 823 3093 
Q 1294 3584 2113 3584 
Q 2378 3584 2631 3529 
Q 2884 3475 3122 3366 
z
" transform="scale(0.015625)"/>
    </defs>
    <use xlink:href="#DejaVuSans-4e"/>
    <use xlink:href="#DejaVuSans-6f" x="74.804688"/>
    <use xlink:href="#DejaVuSans-72" x="135.986328"/>
    <use xlink:href="#DejaVuSans-6d" x="175.349609"/>
    <use xlink:href="#DejaVuSans-61" x="272.761719"/>
    <use xlink:href="#DejaVuSans-6c" x="334.041016"/>
    <use xlink:href="#DejaVuSans-69" x="361.824219"/>
    <use xlink:href="#DejaVuSans-7a" x="389.607422"/>
    <use xlink:href="#DejaVuSans-65" x="442.097656"/>
    <use xlink:href="#DejaVuSans-64" x="503.621094"/>
    <use xlink:href="#DejaVuSans-20" x="567.097656"/>
    <use xlink:href="#DejaVuSans-72" x="598.884766"/>
    <use xlink:href="#DejaVuSans-65" x="637.748047"/>
    <use xlink:href="#DejaVuSans-66" x="699.271484"/>
    <use xlink:href="#DejaVuSans-6c" x="734.476562"/>
    <use xlink:href="#DejaVuSans-65" x="762.259766"/>
    <use xlink:href="#DejaVuSans-63" x="823.783203"/>
    <use xlink:href="#DejaVuSans-74" x="878.763672"/>
    <use xlink:href="#DejaVuSans-61" x="917.972656"/>
    <use xlink:href="#DejaVuSans-6e" x="979.251953"/>
    <use xlink:href="#DejaVuSans-63" x="1042.630859"/>
    <use xlink:href="#DejaVuSans-65" x="1097.611328"/>
   </g>
  </g>
 </g>
 <defs>
  <clipPath id="p45c0ab4a39">
   <rect x="33.64" y="10.8" width="819.56" height="123.605"/>
  </clipPath>
  <clipPath id="p064223fc57">
   <rect x="33.64" y="148.705" width="819.56" height="123.605"/>
  </clipPath>
  <clipPath id="p2a97293f85">
   <rect x="33.64" y="286.61" width="819.56" height="123.605"/>
  </clipPath>
  <clipPath id="pae9ef8a9d4">
   <rect x="33.64" y="424.515" width="819.56" height="123.605"/>
  </clipPath>
 </defs>
</svg>
